<svg width="17" height="17" viewBox="0 0 17 17" fill="none" xmlns="http://www.w3.org/2000/svg">
<g clip-path="url(#clip0_19_234)">
<path d="M12.3958 4.60425H12.4029M4.95832 1.41675H12.0417C13.9977 1.41675 15.5833 3.00241 15.5833 4.95841V12.0417C15.5833 13.9978 13.9977 15.5834 12.0417 15.5834H4.95832C3.00231 15.5834 1.41666 13.9978 1.41666 12.0417V4.95841C1.41666 3.00241 3.00231 1.41675 4.95832 1.41675ZM11.3333 8.05383C11.4207 8.64334 11.32 9.2454 11.0456 9.77438C10.7711 10.3034 10.3368 10.7323 9.80447 11.0003C9.27215 11.2682 8.66889 11.3615 8.0805 11.2668C7.49212 11.1721 6.94857 10.8943 6.52717 10.4729C6.10576 10.0515 5.82797 9.50795 5.73329 8.91957C5.63861 8.33118 5.73187 7.72792 5.9998 7.1956C6.26774 6.66327 6.6967 6.22898 7.22569 5.9545C7.75467 5.68002 8.35673 5.57933 8.94624 5.66675C9.54756 5.75592 10.1043 6.03612 10.5341 6.46596C10.964 6.89581 11.2442 7.45251 11.3333 8.05383Z" stroke="white" stroke-width="2" stroke-linecap="round" stroke-linejoin="round"/>
</g>
<defs>
<clipPath id="clip0_19_234">
<rect width="17" height="17" fill="white"/>
</clipPath>
</defs>
</svg>
